<?xml version="1.0" standalone="no"?>
<!DOCTYPE svg PUBLIC "-//W3C//DTD SVG 20010904//EN"
 "http://www.w3.org/TR/2001/REC-SVG-20010904/DTD/svg10.dtd">
<svg version="1.0" xmlns="http://www.w3.org/2000/svg"
 width="1024.000000pt" height="1024.000000pt" viewBox="0 0 1024.000000 1024.000000"
 preserveAspectRatio="xMidYMid meet">

<g transform="translate(0.000000,1024.000000) scale(0.100000,-0.100000)"
fill="#000000" stroke="none">
<path d="M5322 9380 c-187 -26 -368 -106 -472 -209 -37 -36 -84 -95 -106 -130
l-39 -65 -8 69 c-4 38 -12 74 -17 79 -14 14 -89 -24 -139 -69 -22 -20 -54 -59
-72 -87 -28 -44 -34 -48 -40 -31 -9 26 -38 37 -56 21 -40 -33 -75 -152 -75
-254 0 -35 -1 -64 -3 -64 -2 0 -46 30 -97 66 -433 307 -892 470 -1318 468
-280 -1 -432 -80 -521 -269 -78 -165 -109 -341 -109 -614 0 -407 99 -766 287
-1034 l54 -78 -113 -53 c-62 -29 -130 -59 -150 -65 -45 -15 -47 -29 -12 -64
31 -31 178 -112 225 -125 l34 -8 -103 -58 c-56 -32 -155 -80 -220 -106 l-117
-48 1 -35 c2 -78 182 -299 308 -377 59 -37 69 -50 36 -50 -34 0 -90 -28 -90
-45 0 -24 38 -94 86 -156 63 -82 196 -203 318 -289 58 -41 106 -78 106 -81 0
-4 -35 -27 -77 -52 -71 -41 -173 -133 -221 -197 -32 -44 -58 -93 -85 -166 -18
-45 -40 -83 -63 -105 -60 -56 -198 -229 -262 -326 -139 -209 -202 -384 -202
-558 0 -140 18 -376 45 -601 28 -228 44 -313 80 -421 80 -239 280 -427 530
-501 186 -56 177 -55 1300 -59 l1040 -4 50 -32 c71 -45 139 -45 214 1 l53 33
1042 2 c1140 3 1110 1 1301 63 279 90 477 298 545 569 53 216 102 634 104 895
1 209 -8 254 -85 415 -73 154 -275 432 -399 550 -17 16 -51 72 -75 123 -24 51
-63 117 -85 145 -56 71 -163 162 -232 196 l-57 29 117 78 c137 92 290 235 361
338 67 97 72 120 32 140 -16 9 -40 16 -53 16 -21 1 -19 4 17 33 133 106 252
249 297 357 16 38 18 53 9 64 -6 7 -51 28 -99 46 -150 56 -341 159 -311 168
75 23 221 111 245 147 22 34 12 52 -38 65 -43 12 -178 77 -212 103 -19 14 -18
17 26 78 289 406 378 1052 213 1555 -89 273 -238 367 -580 367 -287 -1 -624
-87 -930 -239 -137 -69 -317 -181 -406 -255 -35 -29 -38 -30 -78 -18 -22 7
-41 15 -41 18 0 4 12 14 28 24 15 9 61 47 102 85 71 66 74 71 65 98 -8 22 -26
37 -77 62 -133 65 -327 80 -472 36 -11 -4 3 20 38 62 70 85 116 174 116 225 0
31 -6 42 -32 62 -18 13 -49 30 -68 36 -46 16 -228 22 -308 11z m280 -70 c21
-6 40 -15 43 -19 3 -5 -16 -3 -42 5 -25 8 -56 14 -67 13 -18 -1 -18 -2 4 -8
16 -5 -12 -10 -80 -14 -58 -4 -131 -13 -162 -22 -190 -49 -394 -198 -464 -337
-19 -37 -34 -75 -34 -83 0 -9 -5 -13 -10 -10 -6 4 -8 14 -6 23 3 10 6 41 7 70
2 43 10 65 39 110 117 180 336 280 620 281 63 1 132 -4 152 -9z m-172 -100 c0
-5 -8 -10 -17 -11 -15 0 -15 -2 2 -8 16 -7 13 -9 -20 -15 -22 -4 -51 -16 -65
-27 -20 -15 -21 -18 -5 -12 23 8 -46 -63 -119 -121 -27 -22 -79 -75 -115 -118
-36 -43 -69 -78 -72 -78 -3 0 -11 12 -17 26 -7 14 -8 23 -2 19 6 -4 10 13 10
46 0 46 -2 50 -16 38 -14 -11 -18 -11 -29 4 -6 9 -15 14 -18 10 -4 -3 -7 -2
-7 3 0 24 165 151 257 198 42 21 94 39 133 44 91 13 100 13 100 2z m-2290
-117 c334 -54 704 -210 996 -418 l71 -51 -82 -32 c-163 -64 -376 -207 -554
-370 l-91 -84 -46 27 c-34 20 -59 48 -99 110 -167 259 -377 432 -582 481 -80
20 -114 14 -149 -23 -30 -33 -44 -82 -44 -158 0 -309 197 -702 447 -895 l32
-25 -103 -120 c-106 -123 -276 -295 -293 -295 -16 0 -86 103 -140 206 -133
253 -193 522 -193 857 0 378 85 641 238 738 121 76 332 95 592 52z m4378 17
c214 -27 322 -120 390 -336 48 -151 63 -252 69 -449 7 -209 -5 -331 -47 -505
-51 -206 -119 -360 -230 -518 l-51 -73 -37 30 c-58 46 -211 207 -287 300 l-69
85 39 30 c91 71 161 147 226 244 140 210 197 370 206 588 7 150 -3 192 -51
236 -38 35 -76 36 -166 5 -204 -70 -428 -267 -540 -475 -22 -40 -40 -75 -40
-77 0 -2 21 6 47 17 61 27 139 48 181 48 29 0 32 -3 32 -29 0 -49 -91 -114
-248 -177 -16 -6 7 -9 75 -9 72 0 108 -5 137 -18 35 -15 38 -19 25 -32 -18
-18 -162 -49 -193 -41 -12 3 -53 38 -91 78 -208 221 -276 283 -431 394 -85 61
-239 146 -315 174 -32 12 -59 26 -59 31 0 28 304 210 480 287 354 154 696 223
948 192z m-2897 -225 c4 -39 15 -88 27 -110 50 -100 72 -154 72 -173 0 -12 5
-22 11 -22 5 0 7 5 4 10 -3 6 3 10 14 10 11 0 22 -4 26 -9 3 -6 28 1 56 16 38
18 48 28 38 34 -10 6 -11 9 -1 9 6 0 11 5 10 11 -2 6 3 14 10 16 8 3 10 -1 5
-13 -5 -13 -3 -15 8 -9 11 7 12 6 2 -6 -11 -14 -8 -16 22 -16 19 0 32 4 29 9
-3 4 2 11 11 15 21 7 37 -15 30 -42 -3 -14 2 -12 19 10 14 17 27 27 30 24 3
-3 -8 -22 -25 -43 -45 -54 -29 -55 30 -2 28 25 91 72 139 104 115 77 121 80
97 51 l-20 -24 20 14 c11 8 31 26 44 40 13 14 20 20 16 13 -4 -8 5 -7 29 5 20
9 34 18 32 21 -2 2 -14 -1 -25 -8 -12 -6 -21 -8 -21 -5 0 3 21 15 48 26 26 12
66 29 90 40 24 11 48 16 54 13 6 -4 8 -3 5 3 -11 18 115 43 217 43 66 0 113
-6 160 -20 36 -12 66 -23 66 -26 0 -3 -10 -2 -22 2 -52 16 -217 3 -316 -25
-110 -32 -128 -40 -269 -123 -99 -59 -149 -98 -125 -98 7 0 12 4 12 9 0 12 68
19 79 8 12 -12 69 1 79 19 4 7 25 20 47 28 32 12 35 15 15 15 -15 1 -21 4 -14
11 17 17 144 60 178 60 28 0 34 -4 38 -25 3 -13 1 -22 -3 -19 -5 3 -9 -1 -9
-9 0 -8 -14 -17 -32 -21 -89 -18 -188 -50 -206 -66 -21 -20 -20 -66 2 -53 6 4
5 -1 -3 -10 -12 -15 -11 -17 5 -17 11 0 39 12 63 25 24 14 45 24 47 22 4 -4
-51 -36 -160 -92 -68 -34 -79 -44 -80 -67 -1 -21 2 -25 14 -19 8 5 28 11 44
15 27 7 28 6 15 -10 -13 -16 -12 -17 11 -10 61 17 80 18 80 7 0 -8 8 -10 20
-6 11 3 20 3 20 -2 0 -5 10 -9 21 -10 30 -3 34 -10 18 -30 -13 -17 -13 -17 6
-3 11 8 23 20 27 25 5 6 8 5 8 -3 0 -9 7 -11 20 -7 11 3 28 2 37 -4 17 -10 17
-10 -2 -11 -18 -1 -18 -2 3 -11 13 -5 20 -13 17 -19 -10 -16 5 -11 33 11 24
18 28 19 38 5 6 -9 16 -16 23 -16 6 0 11 -5 11 -12 0 -9 3 -9 12 0 7 7 20 12
31 12 10 0 15 5 12 11 -4 6 11 1 33 -10 27 -14 42 -17 44 -9 3 7 9 6 18 -3 8
-8 29 -13 45 -12 47 2 90 -15 113 -47 16 -21 27 -27 40 -23 15 6 15 5 3 -10
-12 -15 -11 -17 5 -18 11 -1 22 -1 26 0 5 0 8 -2 7 -7 -3 -18 15 -52 27 -52 8
0 14 -8 14 -18 0 -11 14 -25 33 -35 17 -9 48 -29 66 -44 19 -16 31 -22 27 -15
-7 11 -4 11 13 0 12 -7 21 -16 21 -21 0 -4 11 -5 25 -3 13 3 27 1 30 -3 2 -5
26 -11 51 -15 26 -3 57 -14 67 -24 11 -9 17 -11 13 -5 -5 9 -2 11 8 7 16 -6
18 -10 20 -36 1 -7 9 -21 19 -30 10 -9 18 -19 17 -22 -2 -14 16 -34 35 -39 11
-2 -2 -5 -30 -6 -27 -1 -56 -5 -64 -10 -24 -15 -4 -39 41 -51 67 -19 112 -39
144 -67 l29 -25 -38 22 c-45 26 -59 21 -23 -8 26 -20 36 -40 14 -26 -7 5 -8 3
-3 -6 4 -7 2 -16 -6 -21 -10 -6 -8 -9 9 -9 12 0 22 -5 22 -11 0 -6 6 -9 14 -6
8 3 17 -1 20 -9 7 -17 -26 -19 -55 -3 -20 10 -109 39 -109 35 0 -2 20 -17 45
-35 25 -18 45 -37 45 -42 0 -6 -5 -7 -11 -3 -7 4 -10 0 -7 -10 1 -10 6 -17 10
-17 16 0 65 -54 55 -61 -8 -5 -7 -14 1 -33 15 -32 15 -48 2 -40 -13 8 -35 -6
-37 -25 -1 -8 -5 -25 -9 -37 -5 -18 -2 -23 13 -23 11 0 20 -7 20 -15 0 -18 -2
-18 -29 -4 -23 12 -24 16 24 -60 15 -25 28 -50 28 -55 0 -6 -23 25 -51 69
-188 293 -529 419 -803 296 -109 -49 -213 -154 -281 -286 -20 -39 -33 -59 -29
-45 3 14 13 38 21 53 8 16 12 31 9 35 -3 3 -6 0 -6 -6 0 -6 -8 -9 -17 -6 -15
5 -16 4 -3 -5 13 -9 13 -11 -2 -11 -13 0 -18 8 -18 25 0 14 -5 25 -11 25 -6 0
-9 7 -5 15 7 20 -13 19 -38 -2 -20 -18 -21 -17 -5 2 16 20 15 55 -1 55 -5 0
-12 -5 -16 -12 -4 -7 -3 -8 4 -4 7 4 12 2 12 -4 0 -7 -6 -10 -12 -7 -7 2 -12
10 -10 16 1 6 -5 14 -13 17 -8 3 -13 10 -10 14 3 5 0 12 -6 16 -7 4 -9 3 -6
-2 3 -6 -3 -15 -13 -22 -14 -9 -21 -8 -30 3 -6 8 -18 11 -26 8 -8 -3 -14 1
-14 8 -1 9 -4 8 -11 -4 -6 -9 -15 -15 -20 -11 -18 11 -59 12 -66 1 -4 -6 -1
-7 8 -2 8 5 10 4 6 0 -11 -13 -37 -15 -37 -4 0 6 -6 7 -12 3 -16 -10 -50 -13
-63 -6 -17 10 -35 11 -29 1 3 -5 10 -7 15 -4 14 9 11 -31 -3 -43 -15 -11 -42
10 -30 24 4 5 -1 2 -11 -5 -15 -12 -17 -12 -11 3 3 9 3 16 0 16 -4 0 -10 -10
-15 -23 -8 -20 -15 -23 -51 -21 -22 1 -44 4 -47 8 -4 3 -15 6 -25 6 -13 0 -17
4 -12 13 4 6 -1 5 -12 -4 -17 -14 -46 -20 -110 -22 -15 -1 -20 -6 -16 -15 4
-12 1 -12 -18 -2 -15 8 -20 8 -16 1 4 -6 2 -11 -4 -11 -6 0 -9 -4 -6 -9 4 -5
-3 -7 -14 -4 -11 3 -20 10 -20 15 0 6 -7 5 -15 -2 -9 -7 -18 -10 -21 -7 -4 3
-15 -4 -26 -16 -15 -17 -18 -18 -14 -4 3 9 3 17 0 17 -14 0 -54 -46 -54 -62 0
-9 -6 -18 -12 -20 -10 -4 -10 -10 0 -32 6 -15 12 -35 12 -44 -1 -9 -9 6 -20
35 -37 103 -66 149 -145 228 -197 198 -450 228 -691 84 -70 -42 -185 -147
-225 -206 -17 -24 -34 -41 -40 -38 -5 3 -6 0 -3 -8 3 -8 1 -17 -4 -21 -5 -3
-8 15 -8 39 1 31 5 45 15 45 8 0 11 -7 8 -20 -3 -11 -1 -18 4 -14 5 3 9 12 9
20 0 8 4 14 8 14 5 0 18 13 29 28 18 25 19 28 4 27 -9 0 -22 -4 -29 -9 -7 -4
-12 -2 -12 4 0 6 -4 9 -8 6 -17 -10 -5 57 12 69 14 11 14 14 2 18 -8 3 -17 2
-20 -4 -2 -5 -3 -4 -2 3 2 7 8 14 14 14 7 1 17 2 23 3 6 0 9 8 6 15 -4 11 -1
13 11 9 15 -6 15 -5 3 10 -8 11 -9 17 -3 17 6 0 9 7 5 15 -3 9 -2 15 3 14 23
-4 31 3 30 24 -1 13 -7 21 -16 19 -8 -1 -4 7 10 17 58 46 65 54 48 60 -8 3
-14 13 -13 22 2 8 -4 24 -11 34 -9 12 -14 14 -14 5 0 -7 -3 -10 -6 -7 -4 3
-16 2 -27 -4 -45 -25 -3 12 48 41 57 33 70 46 35 37 -31 -8 -23 1 14 17 31 13
34 18 31 45 -3 21 0 31 9 31 14 0 57 46 53 58 -1 4 16 23 37 42 38 34 39 35
15 41 -22 6 -22 7 -3 8 22 1 67 34 59 43 -3 3 13 13 35 24 22 10 38 24 36 30
-5 12 62 88 78 90 6 1 16 3 21 4 6 1 24 3 40 5 17 1 39 4 50 7 11 3 37 8 58
12 21 4 35 11 33 15 -7 11 31 29 72 36 18 3 50 14 70 25 20 11 47 20 59 20 13
0 23 5 23 12 0 6 3 8 6 5 4 -3 15 -2 25 3 10 6 29 11 43 12 17 2 26 8 26 20 0
11 5 15 14 12 25 -10 28 15 5 47 -12 17 -40 39 -63 49 -53 22 -74 47 -79 90
-2 19 -12 53 -21 74 -12 30 -14 42 -5 50 9 8 10 7 4 -3 -6 -10 1 -22 21 -38
21 -17 23 -22 9 -17 -11 3 14 -26 55 -65 70 -66 101 -88 84 -58 -9 13 -7 12
63 -43 47 -37 68 -36 31 1 -13 13 -19 21 -14 17 17 -13 22 -9 22 16 0 14 -5
24 -10 23 -6 -1 -10 4 -8 11 1 8 -2 11 -7 7 -6 -3 -23 13 -38 36 -25 38 -28
51 -28 132 -1 72 -5 92 -18 102 -20 14 -22 36 -5 53 28 28 43 9 49 -63z m251
-195 c-9 -16 -19 -25 -21 -19 -3 9 26 49 35 49 2 0 -5 -13 -14 -30z m-1628
-444 c66 -21 225 -103 226 -116 0 -3 -16 -21 -35 -42 -39 -41 -50 -41 -153 1
-126 51 -205 126 -172 166 17 21 47 19 134 -9z m496 21 c0 -2 -24 -23 -52 -46
l-53 -43 50 46 c48 44 55 50 55 43z m-116 -99 c-4 -7 -37 -44 -73 -81 -36 -38
-65 -74 -64 -81 2 -6 -30 -50 -70 -97 -73 -87 -237 -294 -322 -406 -26 -35
-49 -63 -52 -63 -10 0 244 333 341 445 119 138 127 165 14 48 -105 -109 -231
-252 -313 -357 -39 -50 -87 -108 -108 -130 -54 -58 88 123 214 274 94 111 424
460 436 460 2 0 1 -6 -3 -12z m3343 -303 c57 -60 143 -162 193 -225 159 -202
184 -233 235 -289 39 -45 41 -49 11 -21 -21 19 -83 91 -138 160 -220 277 -257
319 -436 505 -61 62 -69 73 -27 35 33 -30 106 -104 162 -165z m-3583 177 c3
-5 -12 -26 -34 -47 l-39 -38 -75 5 c-76 5 -131 28 -123 51 2 7 21 17 43 24 45
13 220 17 228 5z m3618 -283 c165 -230 273 -368 378 -484 l54 -60 -53 50 c-75
71 -292 347 -435 555 -84 121 -44 77 56 -61z m-2787 -150 c118 -22 280 -149
342 -266 57 -108 85 -215 87 -335 0 -60 4 -108 9 -108 4 0 7 5 7 10 0 6 11 21
25 33 14 12 32 40 40 62 13 39 14 39 23 16 l9 -25 11 32 c13 39 26 42 18 5 -3
-18 1 -13 14 15 13 28 24 41 31 36 8 -4 9 -3 5 5 -4 6 -4 21 0 34 8 21 8 20
15 -8 l7 -30 1 33 c1 37 17 43 24 10 4 -21 4 -21 6 3 0 14 9 33 19 42 16 15
17 12 15 -46 -2 -69 0 -65 17 41 12 70 21 81 34 37 3 -11 3 0 1 25 -5 42 -4
44 10 26 8 -11 15 -29 15 -40 1 -12 7 -32 14 -46 l14 -24 28 48 c16 27 37 56
47 65 9 9 17 30 17 48 0 18 5 33 11 33 7 0 9 -15 5 -42 -5 -38 -5 -40 5 -15
13 32 20 34 37 7 7 -12 17 -18 21 -15 5 3 0 -13 -11 -36 -10 -22 -17 -43 -14
-46 7 -7 46 58 46 76 0 34 15 -5 16 -42 2 -56 3 -57 19 -19 18 41 37 42 29 2
-4 -19 -2 -30 5 -30 6 0 11 7 11 15 0 8 5 15 10 15 6 0 10 -11 10 -25 0 -30
11 -32 30 -5 8 11 19 20 24 20 6 0 5 -5 -2 -12 -17 -17 -15 -33 3 -18 13 11
13 8 0 -23 -20 -49 -20 -74 0 -57 8 7 15 21 15 31 0 11 5 19 10 19 9 0 14 -29
13 -68 -1 -7 4 -11 10 -9 15 5 33 -14 40 -39 3 -12 5 -6 6 14 1 43 21 32 21
-12 0 -36 53 -100 63 -74 3 8 11 -1 20 -22 l16 -35 1 90 c0 157 58 327 150
443 165 209 467 259 711 116 226 -133 368 -362 386 -627 11 -153 -45 -286
-158 -376 -86 -68 -143 -85 -297 -85 l-133 -1 58 -26 c32 -14 64 -33 72 -42
17 -22 2 -22 -27 -1 -13 9 -25 14 -28 11 -2 -2 14 -16 36 -31 22 -15 38 -31
34 -37 -3 -6 20 -35 52 -64 32 -30 56 -57 52 -60 -3 -3 -11 1 -17 9 -7 8 -19
12 -27 9 -11 -4 -12 -9 -3 -19 6 -8 18 -14 25 -14 8 0 14 -4 14 -10 0 -14 -23
-13 -38 2 -26 26 -10 -6 22 -44 37 -43 80 -146 90 -218 7 -44 6 -45 -7 -15 -8
17 -30 41 -48 54 l-34 24 38 -39 c33 -36 53 -85 27 -69 -6 4 -8 11 -5 16 3 5
-1 6 -10 3 -10 -4 -14 -13 -10 -23 10 -24 27 -151 22 -164 -2 -7 -9 13 -14 43
l-11 55 -2 -80 c-2 -44 -5 -69 -7 -56 -4 19 -7 21 -14 10 -7 -11 -9 -9 -9 7 0
11 -5 25 -12 32 -21 21 -27 13 -11 -19 9 -17 13 -47 11 -70 -2 -21 0 -39 4
-39 5 0 8 -4 8 -10 0 -5 -6 -7 -12 -5 -7 3 -116 23 -243 45 -126 22 -293 51
-370 65 -830 149 -1990 344 -2066 348 -27 1 -49 3 -49 3 0 11 44 142 51 149
14 14 11 25 -6 19 -8 -4 -15 -3 -15 0 0 23 96 139 139 168 29 20 12 24 -22 6
-20 -10 -21 -10 -8 5 7 10 10 17 6 17 -4 0 4 9 18 20 14 11 35 20 46 20 12 0
21 3 21 8 0 4 -48 7 -107 7 -135 1 -200 19 -283 82 -263 197 -214 629 104 920
156 143 325 191 531 152z m2579 -124 c3 -8 1 -15 -3 -15 -5 0 -11 7 -15 15 -3
8 -1 15 3 15 5 0 11 -7 15 -15z m-1434 -63 c0 -15 -2 -15 -10 -2 -13 20 -13
33 0 25 6 -3 10 -14 10 -23z m-412 -47 c-3 -3 -9 2 -12 12 -6 14 -5 15 5 6 7
-7 10 -15 7 -18z m-2018 12 c0 -1 -30 -32 -67 -67 l-68 -65 65 68 c60 62 70
72 70 64z m80 -1 c0 -2 -8 -10 -17 -17 -16 -13 -17 -12 -4 4 13 16 21 21 21
13z m1870 -10 c0 -3 -4 -8 -10 -11 -5 -3 -10 -1 -10 4 0 6 5 11 10 11 6 0 10
-2 10 -4z m-1900 -29 c0 -2 -12 -14 -27 -28 l-28 -24 24 28 c23 25 31 32 31
24z m4550 -124 c0 -7 -58 36 -66 49 -4 7 9 -1 29 -16 20 -16 37 -30 37 -33z
m-2476 -14 l-16 -33 -15 28 c-8 15 -12 33 -9 39 2 7 5 4 5 -5 1 -10 8 -18 17
-18 9 0 14 6 12 12 -3 7 0 18 6 24 19 21 19 -11 0 -47z m-1564 31 c-6 -11 -13
-20 -16 -20 -2 0 0 9 6 20 6 11 13 20 16 20 2 0 0 -9 -6 -20z m2117 -32 c-3
-8 -6 -5 -6 6 -1 11 2 17 5 13 3 -3 4 -12 1 -19z m1191 -23 c-3 -3 -9 2 -12
12 -6 14 -5 15 5 6 7 -7 10 -15 7 -18z m-3340 -10 c-6 -14 -13 -23 -15 -21 -5
5 15 46 22 46 3 0 -1 -11 -7 -25z m4013 8 c13 -16 12 -17 -3 -4 -10 7 -18 15
-18 17 0 8 8 3 21 -13z m-1877 -32 c-4 -17 -9 -30 -11 -27 -3 2 -2 19 2 36 4
17 9 30 11 27 2 -2 1 -18 -2 -36z m1997 22 c13 -16 12 -17 -3 -4 -10 7 -18 15
-18 17 0 8 8 3 21 -13z m-4936 -33 c-3 -5 -16 -15 -28 -21 -19 -9 -19 -8 3 10
28 23 34 26 25 11z m2002 -22 c-3 -7 -5 -2 -5 12 0 14 2 19 5 13 2 -7 2 -19 0
-25z m2874 15 c13 -16 12 -17 -3 -4 -10 7 -18 15 -18 17 0 8 8 3 21 -13z
m-4110 -54 c-5 -13 -10 -19 -10 -12 -1 15 10 45 15 40 3 -2 0 -15 -5 -28z
m1246 -31 c-2 -13 -4 -5 -4 17 -1 22 1 32 4 23 2 -10 2 -28 0 -40z m910 30
c-3 -8 -6 -5 -6 6 -1 11 2 17 5 13 3 -3 4 -12 1 -19z m-2180 -125 c-3 -10 -5
-2 -5 17 0 19 2 27 5 18 2 -10 2 -26 0 -35z m-63 -18 c8 -8 19 -15 25 -15 6 0
11 -7 11 -15 0 -10 -11 -15 -35 -15 -43 0 -131 -33 -168 -64 l-28 -23 68 18
c88 23 137 24 154 2 10 -11 10 -14 2 -9 -7 4 -13 3 -13 -3 0 -5 6 -11 12 -13
7 -3 -13 -16 -45 -31 -31 -14 -82 -49 -112 -78 -58 -55 -76 -89 -24 -45 17 14
34 27 37 27 37 6 65 7 57 1 -6 -4 -33 -38 -60 -76 -27 -39 -68 -94 -92 -123
-24 -29 -40 -53 -36 -53 5 0 28 11 52 25 55 32 57 31 30 -6 -12 -17 -40 -68
-61 -113 -22 -44 -53 -96 -71 -113 -27 -29 -28 -33 -11 -33 10 0 42 12 69 27
38 20 46 22 35 8 -11 -14 -15 -45 -15 -124 0 -94 3 -112 26 -161 15 -30 43
-73 62 -95 30 -33 38 -38 47 -25 8 13 11 11 17 -9 6 -23 7 -23 20 -6 17 25 17
11 -2 -25 -8 -16 -20 -51 -25 -77 l-11 -48 -120 3 -121 3 -97 73 c-53 40 -123
91 -157 114 -85 57 -165 132 -224 210 -27 37 -50 70 -50 73 0 4 41 14 90 23
94 17 246 61 254 74 2 4 -46 7 -108 7 -106 0 -115 2 -180 34 -40 19 -96 60
-137 98 -66 62 -169 207 -169 237 0 20 34 24 200 24 244 0 361 38 530 173 111
88 174 123 258 143 76 19 98 19 116 1z m3772 -24 c68 -26 109 -55 249 -171
108 -90 226 -120 480 -120 95 0 180 -3 189 -6 25 -9 19 -37 -21 -106 -50 -85
-183 -217 -253 -251 -69 -34 -197 -52 -260 -38 -49 11 -62 8 -33 -7 24 -13
226 -68 281 -77 23 -4 42 -11 42 -16 0 -18 -107 -145 -172 -203 -34 -32 -110
-89 -168 -128 -58 -39 -126 -86 -152 -105 -45 -31 -52 -33 -135 -33 -140 0
-281 -46 -357 -116 -20 -19 -34 -25 -54 -21 -41 9 -121 32 -125 37 -2 3 18 28
46 55 35 34 44 40 29 19 -11 -17 -28 -37 -37 -44 -8 -7 -15 -15 -15 -19 0 -9
91 -33 98 -26 3 3 0 5 -6 5 -24 0 -11 38 26 71 20 19 59 59 86 89 26 30 43 44
36 30 l-13 -25 28 25 c33 31 81 98 88 125 4 18 5 18 6 -2 1 -16 6 -21 17 -16
12 4 14 0 8 -22 -7 -27 -6 -27 28 11 51 58 73 94 92 148 23 71 20 169 -9 239
-6 15 -1 14 30 -7 21 -14 44 -26 51 -26 7 0 21 -3 31 -6 11 -3 7 3 -11 17 -17
13 -46 60 -72 118 -25 52 -56 110 -70 129 l-26 34 41 -21 c58 -30 65 -26 25
17 -40 44 -143 189 -126 178 7 -4 12 -3 12 3 0 5 -8 15 -17 20 -15 9 -13 10
13 11 19 0 38 -8 49 -20 10 -11 23 -20 29 -20 17 0 -66 79 -111 106 -23 13
-50 24 -60 24 -15 0 -16 2 -3 10 13 9 8 14 -11 12 -4 -1 -9 8 -12 18 -4 15 1
22 21 27 24 6 108 -5 172 -23 22 -6 21 -3 -10 20 -35 27 -60 36 -162 56 -32 6
-58 15 -58 19 0 4 19 14 43 24 54 21 118 15 213 -22z m187 -93 c35 -35 45 -47
23 -27 -23 19 -56 48 -74 62 -19 15 -29 27 -23 27 6 0 39 -28 74 -62z m-3480
-385 c-13 -2 -33 -2 -45 0 -13 2 -3 4 22 4 25 0 35 -2 23 -4z m2554 1 c-3 -3
-12 -4 -19 -1 -8 3 -5 6 6 6 11 1 17 -2 13 -5z m96 -1 c-7 -2 -19 -2 -25 0 -7
3 -2 5 12 5 14 0 19 -2 13 -5z m-56 -9 c-3 -3 -12 -4 -19 -1 -8 3 -5 6 6 6 11
1 17 -2 13 -5z m-2452 -473 c201 -32 766 -128 1035 -176 47 -8 164 -29 260
-46 658 -114 1302 -238 1402 -270 109 -35 188 -87 188 -126 0 -33 -19 -29 -79
16 -64 48 -134 68 -424 121 -117 22 -284 53 -372 69 -88 16 -259 46 -380 65
-121 20 -274 45 -340 56 -66 11 -137 19 -157 19 -34 -2 -36 -4 -20 -16 14 -11
14 -13 2 -12 -30 3 -60 -14 -60 -32 0 -14 -7 -19 -25 -19 -14 0 -25 -4 -25
-10 0 -5 -5 -10 -11 -10 -5 0 -7 6 -3 13 4 6 3 9 -1 4 -5 -4 -10 -18 -11 -30
-2 -12 0 -16 2 -9 7 16 21 16 21 -1 0 -7 -9 -14 -19 -14 -10 -1 -18 2 -18 8 0
5 -8 9 -17 9 -14 0 -15 -2 -5 -9 10 -6 8 -10 -8 -14 -16 -4 -21 -11 -16 -22 3
-9 2 -13 -4 -10 -6 3 -10 1 -10 -6 0 -8 -5 -7 -17 2 -11 10 -14 10 -9 2 4 -7
2 -13 -3 -13 -6 0 -11 4 -11 8 0 4 -8 8 -17 9 -10 1 -31 4 -48 8 -16 3 3 -10
43 -29 90 -44 95 -56 6 -15 -61 27 -74 29 -153 25 -84 -3 -86 -4 -89 -30 -3
-25 -23 -33 -69 -27 -13 2 -17 -11 -14 -36 1 -10 -5 -10 -24 -3 -14 5 -25 6
-25 0 0 -4 7 -10 16 -12 8 -2 -1 -8 -22 -14 -33 -11 -37 -10 -41 7 -7 25 -33
25 -33 0 0 -15 -8 -21 -32 -23 -17 -2 -34 -10 -36 -18 -5 -13 -3 -13 13 0 17
14 17 14 5 -6 -10 -17 -16 -19 -26 -10 -7 6 -11 14 -11 18 1 3 -2 6 -8 7 -5 0
-9 -9 -7 -19 2 -11 -2 -20 -8 -20 -6 0 -9 4 -6 8 2 4 -4 8 -15 8 -10 0 -19 -4
-19 -8 0 -4 5 -8 12 -8 16 0 -23 -29 -39 -30 -7 0 -13 4 -13 10 0 5 7 7 15 4
8 -4 15 -1 15 5 0 10 -14 15 -33 12 -4 -1 -17 4 -29 10 -16 9 -19 8 -13 -2 6
-9 3 -10 -9 -6 -14 6 -17 3 -12 -8 3 -9 2 -14 -2 -11 -5 3 -21 -2 -36 -10 -36
-18 -50 -18 -66 1 -11 13 -15 13 -21 3 -7 -10 -9 -11 -9 0 0 10 -5 10 -20 2
-15 -8 -20 -8 -20 2 0 6 -7 3 -16 -8 -8 -10 -13 -14 -10 -8 3 7 -1 17 -9 24
-12 10 -15 9 -15 -3 0 -11 -5 -14 -17 -10 -10 4 -14 2 -10 -4 9 -14 -11 -11
-40 5 -13 7 -23 9 -23 4 0 -10 -61 -10 -77 1 -8 5 -13 4 -13 -2 0 -6 -4 -11
-9 -11 -6 0 -8 9 -6 20 3 17 1 19 -16 10 -13 -8 -19 -7 -19 0 0 6 -4 8 -10 5
-5 -3 -10 -2 -10 4 0 6 -7 8 -16 4 -13 -5 -13 -7 -2 -14 7 -5 11 -9 8 -10 -3
0 -12 -2 -22 -4 -9 -2 -18 5 -21 16 -7 28 -25 23 -31 -8 -2 -16 -3 13 -2 62 4
158 42 213 174 251 63 19 118 50 175 100 33 31 43 34 100 35 34 0 71 4 82 8
11 5 -16 6 -60 4 -59 -4 -87 -10 -105 -24 -71 -55 -144 -98 -186 -108 -72 -18
-129 -47 -147 -74 -31 -48 -47 -125 -55 -274 -6 -97 -14 -158 -22 -168 -16
-19 -46 -20 -53 -1 -3 8 -2 115 3 238 11 283 27 345 110 428 64 64 186 88 281
55 41 -15 43 -15 27 1 -12 12 -40 19 -97 22 -104 6 -168 -16 -229 -78 l-45
-45 34 47 c26 35 47 52 87 67 30 12 60 21 68 21 8 0 14 5 14 11 0 5 -5 7 -12
3 -6 -4 -8 -3 -4 4 7 12 79 27 116 23 14 -1 139 -22 278 -47 139 -25 257 -44
263 -42 16 5 -513 101 -561 101 -28 1 -77 -12 -129 -33 -140 -55 -231 -168
-249 -310 -5 -39 -7 -41 -13 -20 -6 24 -7 24 -15 -10 l-8 -35 -12 30 c-34 79
-1 185 86 279 128 137 261 169 525 127z m2775 -336 c-13 -14 -26 -22 -29 -19
-3 3 5 14 19 24 34 27 38 25 10 -5z m-1690 11 c0 -3 -4 -8 -10 -11 -5 -3 -10
-1 -10 4 0 6 5 11 10 11 6 0 10 -2 10 -4z m-1821 -62 c44 -13 55 -21 67 -49
19 -47 19 -48 -23 -27 -58 29 -135 44 -190 37 -216 -29 -391 -176 -444 -374
-10 -36 -18 -57 -18 -46 -1 11 6 45 15 75 18 62 25 115 13 103 -21 -23 -61
-145 -74 -226 -13 -87 -14 -88 -9 -22 7 97 21 148 62 235 43 89 147 199 232
245 116 62 261 81 369 49z m4081 -5 c106 -29 164 -64 246 -144 71 -71 135
-178 149 -250 4 -16 -6 -1 -21 35 -27 65 -75 143 -95 156 -7 4 -7 0 -1 -12 26
-49 72 -162 72 -175 -1 -8 -9 7 -19 32 -74 189 -274 318 -494 319 -53 0 -86
-7 -144 -30 -41 -16 -76 -30 -78 -30 -2 0 -5 8 -7 17 -3 14 -5 15 -18 2 -8 -8
-23 -15 -33 -16 -17 -1 -16 2 4 23 26 28 110 70 166 83 71 17 194 12 273 -10z
m-3873 -31 c-3 -8 -6 -5 -6 6 -1 11 2 17 5 13 3 -3 4 -12 1 -19z m-60 -40 c-3
-8 -6 -5 -6 6 -1 11 2 17 5 13 3 -3 4 -12 1 -19z m1245 -21 c-11 -12 -28 -38
-36 -57 -8 -19 -15 -30 -16 -23 -1 31 43 103 63 103 6 0 1 -10 -11 -23z m466
-160 c645 -346 636 -340 651 -374 17 -36 13 -88 -6 -105 -10 -9 -198 -108
-418 -220 l-400 -205 -127 -5 c-69 -3 -133 -1 -142 4 -9 5 -25 27 -36 48 -19
37 -20 59 -20 485 0 492 1 497 62 535 24 15 44 20 71 16 24 -3 159 -69 365
-179z m-138 97 c0 -2 -13 2 -30 11 -16 9 -30 18 -30 21 0 2 14 -2 30 -11 17
-9 30 -18 30 -21z m-383 -226 c-2 -35 -3 -7 -3 62 0 69 1 97 3 63 2 -35 2 -91
0 -125z m-426 109 c-10 -9 -11 -8 -5 6 3 10 9 15 12 12 3 -3 0 -11 -7 -18z
m-604 -74 c-3 -10 -5 -4 -5 12 0 17 2 24 5 18 2 -7 2 -21 0 -30z m4180 -105
c-3 -8 -6 -5 -6 6 -1 11 2 17 5 13 3 -3 4 -12 1 -19z m-4260 -305 c-1 -54 -3
-10 -3 97 0 107 2 151 3 98 2 -54 2 -142 0 -195z m4270 255 c-3 -7 -5 -2 -5
12 0 14 2 19 5 13 2 -7 2 -19 0 -25z m-5110 -60 c-2 -18 -4 -6 -4 27 0 33 2
48 4 33 2 -15 2 -42 0 -60z m5275 -68 c128 -167 215 -315 272 -458 53 -136 61
-180 42 -245 -39 -135 -117 -223 -259 -292 -172 -83 -204 -87 -792 -95 -435
-5 -469 -6 -235 -9 228 -3 443 -13 393 -19 -18 -3 -16 -41 1 -48 16 -6 9 -44
-9 -44 -7 0 -12 -16 -13 -41 -1 -23 -6 -47 -12 -54 -5 -6 -7 -15 -3 -19 4 -4
0 -4 -10 0 -11 4 -17 1 -17 -7 0 -11 -3 -11 -10 1 -8 13 -11 11 -16 -7 -4 -13
-12 -23 -19 -23 -17 0 -27 -27 -12 -34 7 -2 -3 -5 -20 -5 -18 -1 -33 -5 -33
-11 0 -5 -6 -9 -12 -7 -7 1 -12 -6 -12 -15 2 -21 -7 -23 -25 -5 -10 10 -12 9
-9 -3 2 -8 -3 -14 -10 -12 -8 1 -11 -2 -8 -7 8 -13 -21 -34 -39 -27 -9 3 -23
-3 -32 -14 -19 -22 -39 -27 -27 -7 5 6 -3 4 -16 -5 -14 -9 -24 -22 -22 -30 3
-10 1 -11 -9 0 -7 6 -20 12 -28 12 -12 0 -11 -3 3 -13 16 -12 13 -13 -23 -14
-41 -1 -91 -25 -91 -44 0 -6 -7 -6 -20 1 -16 9 -20 8 -21 -7 0 -12 -2 -13 -6
-5 -4 10 -10 9 -26 -5 -11 -10 -17 -12 -12 -4 5 9 3 12 -6 9 -8 -3 -13 -10
-12 -16 2 -6 -4 -9 -13 -5 -13 5 -13 8 -2 15 8 6 4 7 -12 2 -14 -4 -31 -7 -37
-7 -7 0 -13 -7 -13 -16 0 -11 -3 -12 -11 -4 -7 7 -25 9 -40 6 -18 -3 -29 -1
-29 6 0 6 -5 11 -11 11 -5 0 -7 -4 -4 -10 3 -5 1 -10 -5 -10 -6 0 -9 -4 -5
-10 3 -5 13 -6 23 -3 9 3 14 3 10 -1 -10 -12 -42 -14 -55 -3 -9 6 -13 6 -13
-2 0 -8 -5 -9 -15 -4 -21 12 -87 4 -78 -10 3 -6 1 -7 -6 -3 -6 4 -9 11 -6 16
9 15 -15 22 -31 9 -12 -10 -13 -9 -9 4 4 8 1 18 -6 23 -8 5 -10 3 -5 -7 4 -8
1 -6 -7 4 -9 10 -18 18 -21 17 -21 -5 -27 14 -28 86 0 45 2 88 6 95 4 8 1 5
-6 -5 -7 -10 -24 -31 -36 -45 l-24 -26 19 30 c32 51 43 84 43 131 0 52 -17 88
-57 125 -63 57 -81 63 -213 70 -91 4 -107 6 -60 9 36 1 90 2 120 2 46 0 50 1
25 8 -16 4 -23 9 -15 10 8 1 2 6 -15 10 -21 5 3 8 75 10 58 2 175 6 260 10
132 5 106 7 -177 8 -182 1 -338 5 -347 8 -9 3 -16 15 -16 25 0 15 8 19 33 20
30 0 30 1 9 10 -19 7 -23 16 -21 41 1 18 1 44 -1 58 l-2 25 -8 -25 c-7 -21 -8
-19 -9 18 l-1 42 383 0 c605 1 1117 13 1241 30 291 40 436 138 436 296 0 60
-63 232 -117 317 -22 35 -22 39 -8 67 22 42 45 147 45 205 0 27 4 45 8 40 5
-6 38 -48 74 -95z m-5402 28 c0 -24 13 -81 29 -128 l29 -85 -43 -80 c-55 -100
-95 -219 -95 -280 0 -122 112 -220 303 -265 137 -32 271 -40 676 -40 213 0
550 -3 749 -7 l362 -6 0 -107 0 -107 -167 -10 c-165 -10 -166 -10 -63 -12 58
-1 99 -5 92 -8 -6 -2 -10 -9 -6 -14 3 -5 -1 -10 -8 -11 -7 -1 14 -4 47 -8 50
-6 40 -7 -59 -8 -141 -2 -187 -14 -237 -62 -63 -60 -72 -164 -20 -239 32 -47
36 -57 12 -37 -21 19 -21 19 2 -25 18 -32 24 -57 22 -91 -2 -27 1 -48 6 -48
14 0 5 -44 -13 -64 -10 -11 -18 -26 -18 -33 0 -7 -12 -16 -26 -19 -16 -4 -23
-11 -20 -20 4 -12 1 -12 -14 -4 -16 9 -18 8 -14 -5 4 -10 0 -15 -10 -15 -9 0
-16 -7 -16 -15 0 -9 -6 -12 -16 -8 -13 5 -13 8 -2 15 10 8 10 9 -2 5 -8 -2
-15 -10 -15 -18 0 -8 -8 -13 -17 -11 -8 1 -19 -5 -22 -14 -6 -15 -8 -15 -27 2
-11 10 -20 14 -19 9 2 -6 2 -16 1 -24 -1 -11 -4 -11 -18 0 -15 12 -16 12 -10
-4 6 -16 5 -16 -21 0 -26 17 -26 17 -13 0 8 -10 10 -17 5 -16 -5 1 -25 1 -44
0 -27 -1 -31 -4 -20 -11 12 -8 9 -10 -13 -10 -16 0 -26 4 -22 10 4 6 -2 7 -17
2 -13 -4 -32 -7 -43 -7 -11 1 -26 -4 -34 -9 -11 -8 -13 -8 -7 2 4 7 1 12 -8
12 -9 0 -16 -4 -16 -9 0 -5 -19 -9 -42 -9 -67 1 -80 -1 -73 -11 3 -6 -6 -6
-24 -1 -16 4 -31 6 -33 4 -5 -4 -56 -6 -88 -2 -14 2 -28 -1 -32 -7 -5 -7 -8
-6 -8 1 0 8 -13 9 -40 4 -22 -4 -37 -4 -35 0 6 9 -31 20 -39 12 -8 -7 -56 -9
-56 -2 0 3 -14 7 -31 8 -18 1 -37 6 -43 9 -6 4 -46 8 -89 10 -43 1 -84 7 -91
12 -7 6 -23 10 -37 9 -51 -2 -61 1 -55 20 6 16 5 16 -8 0 -14 -19 -32 -25 -21
-8 4 6 -5 10 -20 10 -18 0 -24 4 -19 13 6 10 4 10 -7 0 -7 -7 -17 -13 -22 -13
-4 0 -5 6 -2 13 3 6 0 5 -6 -4 -11 -15 -14 -15 -30 5 -34 39 -19 -1 21 -62 44
-65 106 -113 206 -157 134 -59 108 -58 1001 -64 452 -3 825 -9 829 -13 4 -5
-9 -8 -29 -8 -20 0 -37 -4 -37 -10 0 -6 33 -10 79 -10 44 0 88 -3 98 -7 16 -6
16 -4 -2 17 l-20 23 33 -24 34 -24 -59 -3 c-32 -2 -474 -1 -983 1 -993 5 -992
5 -1159 58 -256 81 -432 269 -482 514 -23 112 -64 434 -84 665 -18 205 -18
230 -5 230 6 0 10 -6 10 -14 0 -7 16 -45 35 -84 38 -75 99 -138 168 -173 51
-27 46 -18 -12 19 -67 44 -118 103 -154 181 -27 56 -31 77 -31 141 2 127 49
244 184 450 66 101 190 260 203 260 4 0 7 -19 7 -42z m93 -43 c5 -28 4 -34 -3
-20 -8 19 -14 73 -6 64 2 -2 6 -22 9 -44z m44 13 c-3 -8 -6 -5 -6 6 -1 11 2
17 5 13 3 -3 4 -12 1 -19z m3031 -602 c83 -43 95 -89 92 -371 -1 -121 -2 -224
-1 -230 1 -6 51 -9 135 -7 209 5 266 -20 266 -117 0 -47 -4 -54 -57 -112 -31
-33 -177 -167 -323 -297 -146 -130 -313 -281 -373 -336 -139 -130 -178 -156
-233 -156 -23 0 -55 5 -71 11 -31 12 -136 89 -129 96 2 2 24 -11 49 -30 25
-19 66 -43 92 -52 80 -31 137 0 320 174 44 42 114 105 155 141 41 36 100 88
130 115 30 28 114 103 185 167 72 64 146 133 165 155 19 21 8 13 -25 -18 -61
-56 -167 -151 -380 -339 -66 -58 -176 -156 -245 -219 -227 -207 -238 -210
-420 -88 -176 119 -800 670 -836 739 -36 69 -3 141 71 158 22 5 110 10 195 10
l155 0 0 267 c0 252 1 270 20 295 43 58 37 58 558 58 391 0 483 -3 505 -14z
m2569 -118 c-3 -7 -5 -2 -5 12 0 14 2 19 5 13 2 -7 2 -19 0 -25z m-6 -211
c-13 -189 -48 -456 -86 -642 -37 -184 -109 -313 -232 -416 -61 -51 -121 -82
-233 -119 -188 -63 -188 -63 -1252 -67 -533 -2 -968 -1 -968 3 0 12 32 44 44
44 6 0 2 -7 -8 -15 -11 -8 -18 -17 -15 -19 9 -9 230 7 220 17 -5 5 -41 8 -80
5 -49 -2 -67 0 -60 7 6 7 290 12 837 16 929 7 939 7 1133 83 125 48 157 69
252 162 45 43 64 59 43 34 -20 -25 -63 -69 -94 -99 -31 -29 -51 -50 -44 -47 7
4 12 1 12 -8 0 -8 5 -16 12 -18 6 -2 -12 -16 -42 -31 -30 -15 -48 -27 -41 -27
20 0 123 54 179 95 61 43 133 128 167 194 30 60 70 194 89 301 44 237 69 383
81 463 10 67 21 99 45 138 20 30 35 68 38 97 12 103 13 11 3 -151z m-2384 -64
c-3 -10 -5 -2 -5 17 0 19 2 27 5 18 2 -10 2 -26 0 -35z m2263 32 c-7 -9 -27
-25 -44 -37 -23 -15 -21 -11 9 16 43 38 55 45 35 21z m17 -107 c-3 -7 -5 -2
-5 12 0 14 2 19 5 13 2 -7 2 -19 0 -25z m-100 -180 c-2 -24 -4 -7 -4 37 0 44
2 63 4 43 2 -21 2 -57 0 -80z m-10 -95 c-3 -10 -5 -4 -5 12 0 17 2 24 5 18 2
-7 2 -21 0 -30z m-10 -55 c-3 -7 -5 -2 -5 12 0 14 2 19 5 13 2 -7 2 -19 0 -25z
m-1417 -248 c0 -5 -2 -10 -4 -10 -3 0 -8 5 -11 10 -3 6 -1 10 4 10 6 0 11 -4
11 -10z m1311 -87 c-5 -10 -17 -27 -26 -38 -16 -19 -17 -19 -3 5 26 46 29 50
34 50 3 0 0 -8 -5 -17z m-3600 -30 c13 -16 12 -17 -3 -4 -17 13 -22 21 -14 21
2 0 10 -8 17 -17z"/>
<path d="M5393 9303 c9 -2 23 -2 30 0 6 3 -1 5 -18 5 -16 0 -22 -2 -12 -5z"/>
<path d="M4979 8993 c-13 -16 -12 -17 4 -4 16 13 21 21 13 21 -2 0 -10 -8 -17
-17z"/>
<path d="M2589 8797 c-74 -50 -106 -166 -96 -352 8 -137 36 -253 87 -361 21
-46 41 -84 44 -84 3 0 -7 28 -23 63 -79 176 -110 351 -91 517 27 244 137 286
407 155 115 -56 225 -139 328 -246 70 -73 98 -108 188 -229 18 -25 18 -25 2 5
-62 109 -229 292 -351 383 -82 62 -217 134 -293 156 -81 24 -160 21 -202 -7z"/>
<path d="M2536 8648 c-3 -13 -5 -41 -5 -63 1 -33 3 -29 9 20 8 63 7 81 -4 43z"/>
<path d="M3468 8200 c9 -16 21 -30 25 -30 5 0 -1 14 -13 30 -27 39 -34 39 -12
0z"/>
<path d="M2644 7963 c23 -45 164 -218 222 -273 32 -30 22 -16 -28 40 -41 47
-103 123 -138 170 -73 100 -78 105 -56 63z"/>
<path d="M7520 8809 c-118 -23 -341 -169 -480 -316 -80 -84 -265 -313 -252
-313 4 1 48 53 97 117 170 221 326 358 510 449 63 31 106 46 145 49 44 4 48 3
22 -4 -18 -5 -36 -12 -40 -16 -4 -3 7 -3 23 1 58 15 102 10 129 -15 14 -14 29
-22 32 -18 4 4 -1 9 -10 13 -9 3 -16 11 -16 17 0 5 9 2 20 -8 11 -10 17 -21
15 -26 -6 -9 14 -24 21 -16 3 3 0 15 -6 27 -10 18 -9 21 1 18 19 -6 46 -93 59
-191 9 -63 9 -109 0 -179 -25 -215 -83 -368 -196 -518 -31 -41 -44 -64 -29
-50 40 37 111 148 154 242 93 199 117 510 51 664 -32 74 -117 99 -250 73z"/>
<path d="M7751 8544 c0 -11 3 -14 6 -6 3 7 2 16 -1 19 -3 4 -6 -2 -5 -13z"/>
<path d="M6866 8165 c-21 -14 -42 -23 -47 -20 -5 3 -6 -1 -3 -10 4 -10 10 -12
18 -6 6 5 29 20 50 35 21 14 34 26 29 26 -6 0 -27 -11 -47 -25z"/>
<path d="M7519 7788 c-22 -20 -73 -78 -68 -78 3 0 25 20 49 45 41 42 53 61 19
33z"/>
<path d="M7409 7683 l-24 -28 28 24 c15 14 27 26 27 28 0 8 -8 1 -31 -24z"/>
<path d="M5888 8913 c7 -3 16 -2 19 1 4 3 -2 6 -13 5 -11 0 -14 -3 -6 -6z"/>
<path d="M5188 8694 c-52 -34 -48 -40 5 -8 50 32 53 34 41 33 -5 0 -26 -11
-46 -25z"/>
<path d="M5084 8618 l-19 -21 28 18 c28 18 33 25 19 25 -5 0 -17 -10 -28 -22z"/>
<path d="M6065 8311 c-3 -5 -2 -12 3 -15 5 -3 9 1 9 9 0 17 -3 19 -12 6z"/>
<path d="M4145 8071 c-12 -5 9 -7 50 -4 91 6 105 11 30 12 -33 0 -69 -4 -80
-8z"/>
<path d="M5904 8060 c-104 -41 -174 -128 -174 -215 0 -59 21 -99 60 -115 34
-14 346 -8 469 10 112 16 145 70 100 165 -27 57 -76 100 -157 138 -86 40 -220
48 -298 17z m280 -20 c39 -15 77 -40 112 -74 87 -85 96 -170 21 -201 -32 -13
-310 -35 -447 -35 -66 0 -74 2 -101 29 -25 25 -29 37 -29 82 0 90 48 150 163
205 46 22 62 25 137 21 56 -3 105 -12 144 -27z"/>
<path d="M4310 8061 c74 -23 164 -94 187 -148 26 -63 14 -129 -31 -165 -25
-21 -129 -23 -326 -8 -226 18 -266 50 -206 168 29 58 46 73 127 118 35 19 53
32 39 28 -90 -24 -189 -122 -201 -199 -12 -78 43 -109 216 -124 214 -19 316
-18 348 3 85 57 72 196 -25 266 -56 41 -113 70 -135 69 -12 0 -10 -3 7 -8z"/>
<path d="M6692 7407 l-23 -13 22 -20 c12 -10 19 -13 15 -7 -4 7 -2 22 4 33 12
23 12 23 -18 7z"/>
<path d="M4607 7299 c4 -13 8 -18 11 -10 2 7 -1 18 -6 23 -8 8 -9 4 -5 -13z"/>
<path d="M3975 7497 c-165 -55 -323 -207 -384 -372 -44 -117 -45 -282 -4 -388
55 -140 195 -248 340 -263 87 -9 115 4 43 21 -84 20 -145 50 -193 94 -111 102
-143 280 -85 469 20 65 35 85 23 31 -7 -32 -7 -32 13 -13 11 10 34 47 51 81
17 34 35 64 40 68 6 3 -1 -14 -14 -38 -60 -106 -71 -280 -26 -397 83 -217 329
-319 535 -222 233 109 315 413 184 682 -41 84 -141 186 -223 226 -52 25 -73
29 -160 31 -63 2 -115 -2 -140 -10z m336 -223 c35 -18 49 -37 56 -77 8 -51
-36 -97 -98 -104 -138 -16 -209 142 -86 190 44 17 84 14 128 -9z"/>
<path d="M6015 7496 c-156 -49 -268 -179 -316 -363 -22 -89 -25 -206 -5 -279
101 -378 582 -440 755 -97 75 149 62 339 -31 464 -37 49 -38 51 -9 24 18 -16
46 -59 64 -95 43 -88 62 -103 47 -36 -14 63 6 27 30 -52 80 -272 -11 -482
-238 -552 -35 -11 -78 -20 -96 -20 -24 0 -27 -3 -16 -10 22 -14 107 -12 166 4
111 29 224 118 273 214 50 99 65 243 36 357 -52 206 -216 384 -404 439 -65 19
-199 20 -256 2z m62 -216 c86 -52 26 -170 -86 -170 -61 0 -111 44 -111 97 0
72 124 118 197 73z m-207 -300 c8 -5 11 -10 5 -10 -5 0 -17 5 -25 10 -8 5 -10
10 -5 10 6 0 17 -5 25 -10z"/>
<path d="M5206 7203 c-6 -14 -5 -15 5 -6 7 7 10 15 7 18 -3 3 -9 -2 -12 -12z"/>
<path d="M5000 6841 c-82 -27 -143 -77 -156 -127 -8 -32 11 -83 45 -125 32
-38 136 -99 170 -99 28 0 28 -33 0 -61 -12 -12 -51 -35 -87 -52 -57 -27 -79
-32 -144 -32 -92 0 -120 16 -158 90 -14 27 -31 50 -37 52 -19 7 -43 -28 -43
-62 0 -45 42 -93 118 -133 51 -27 60 -37 71 -74 36 -118 124 -228 220 -275 73
-36 172 -39 243 -6 95 43 209 183 237 288 9 35 17 43 62 64 93 45 133 101 113
160 -7 18 -17 26 -34 26 -19 0 -26 -7 -31 -33 -13 -65 -71 -102 -161 -102 -95
0 -185 37 -237 95 -33 38 -33 55 0 55 62 0 190 106 204 169 16 72 -12 112
-110 158 -51 23 -75 28 -160 30 -55 1 -111 -1 -125 -6z m241 -46 c24 -8 50
-18 58 -21 11 -3 7 -9 -13 -19 -37 -20 -290 -21 -324 -1 -21 11 -22 14 -7 26
48 40 192 47 286 15z m64 -764 c-74 -72 -203 -93 -293 -47 -27 14 -55 33 -62
43 -14 17 -14 17 5 1 76 -64 191 -76 285 -28 32 16 61 34 65 40 3 5 9 10 13
10 3 0 -2 -9 -13 -19z"/>
<path d="M6385 5610 c17 -4 39 -8 50 -8 16 0 15 2 -5 8 -14 4 -36 8 -50 8 -22
0 -22 -1 5 -8z"/>
<path d="M3963 5823 c9 -2 23 -2 30 0 6 3 -1 5 -18 5 -16 0 -22 -2 -12 -5z"/>
<path d="M4019 5817 c5 -5 21 -7 37 -5 27 3 26 4 -8 9 -22 3 -34 1 -29 -4z"/>
<path d="M4358 5813 c6 -2 18 -2 25 0 6 3 1 5 -13 5 -14 0 -19 -2 -12 -5z"/>
<path d="M4420 5800 c14 -4 36 -8 50 -8 22 0 22 1 -5 8 -16 4 -39 8 -50 8 -16
0 -15 -2 5 -8z"/>
<path d="M4508 5783 c6 -2 18 -2 25 0 6 3 1 5 -13 5 -14 0 -19 -2 -12 -5z"/>
<path d="M4888 5703 c7 -3 16 -2 19 1 4 3 -2 6 -13 5 -11 0 -14 -3 -6 -6z"/>
<path d="M4965 5689 c22 -4 49 -8 60 -8 17 -1 17 1 5 9 -8 5 -35 9 -60 9 l-45
-1 40 -9z"/>
<path d="M4646 5511 c-3 -4 6 -6 19 -3 14 2 25 6 25 8 0 8 -39 4 -44 -5z"/>
<path d="M3549 5399 c-1 -8 -3 -24 -4 -36 -1 -14 4 -23 16 -26 13 -4 17 -1 12
6 -4 7 -9 23 -11 37 -4 29 -11 40 -13 19z"/>
<path d="M4390 5380 c0 -5 7 -7 15 -4 8 4 15 8 15 10 0 2 -7 4 -15 4 -8 0 -15
-4 -15 -10z"/>
<path d="M3990 5298 c0 -6 6 -8 14 -5 7 3 19 0 25 -6 8 -8 11 -8 11 1 0 7 -3
12 -7 13 -5 0 -16 2 -25 4 -10 2 -18 -1 -18 -7z"/>
<path d="M3184 5553 c15 -4 16 -7 5 -15 -10 -7 -7 -7 9 -3 16 5 27 2 35 -9 8
-10 17 -13 26 -7 11 7 5 13 -24 25 -20 9 -45 15 -54 15 -12 -1 -11 -2 3 -6z"/>
<path d="M2724 5398 l-19 -23 23 19 c21 18 27 26 19 26 -2 0 -12 -10 -23 -22z"/>
<path d="M7812 4935 c0 -16 2 -22 5 -12 2 9 2 23 0 30 -3 6 -5 -1 -5 -18z"/>
<path d="M6533 3843 c9 -2 25 -2 35 0 9 3 1 5 -18 5 -19 0 -27 -2 -17 -5z"/>
<path d="M6527 3341 c-4 -17 -3 -21 5 -13 5 5 8 16 6 23 -3 8 -7 3 -11 -10z"/>
<path d="M2081 4149 c-2 -16 30 -92 54 -126 23 -34 26 -35 23 -13 -2 14 -15
41 -28 60 -14 19 -30 46 -37 60 -6 14 -12 22 -12 19z"/>
<path d="M2351 3916 c2 -2 15 -9 29 -15 24 -11 24 -11 6 3 -16 13 -49 24 -35
12z"/>
<path d="M2311 3800 c-2 -69 67 -488 99 -599 5 -17 6 -31 3 -31 -3 0 -1 -6 4
-12 19 -24 32 -76 20 -74 -30 4 -37 19 -37 77 0 52 -2 60 -17 57 -12 -3 -17
-12 -15 -28 3 -37 -12 -10 -49 85 -33 84 -52 152 -64 223 -4 24 -9 41 -12 39
-9 -10 29 -181 57 -259 34 -91 68 -154 118 -216 34 -43 59 -61 157 -117 66
-37 54 -26 -23 25 -34 22 -62 44 -62 50 0 5 -3 9 -7 9 -19 -3 -27 2 -15 9 10
7 7 24 -13 77 -45 119 -91 345 -134 655 -5 42 -9 52 -10 30z m149 -736 c0 -8
-19 -13 -24 -6 -3 5 1 9 9 9 8 0 15 -2 15 -3z"/>
<path d="M2212 3690 c0 -14 2 -19 5 -12 2 6 2 18 0 25 -3 6 -5 1 -5 -13z"/>
<path d="M2222 3630 c0 -19 2 -27 5 -17 2 9 2 25 0 35 -3 9 -5 1 -5 -18z"/>
<path d="M2231 3574 c0 -11 3 -14 6 -6 3 7 2 16 -1 19 -3 4 -6 -2 -5 -13z"/>
<path d="M2331 3284 c-1 -6 4 -26 10 -43 9 -24 14 -30 23 -21 8 8 8 13 -1 18
-7 4 -16 19 -22 32 -5 14 -10 20 -10 14z"/>
<path d="M2370 3256 c0 -8 5 -18 10 -21 6 -3 10 1 10 9 0 8 -4 18 -10 21 -5 3
-10 -1 -10 -9z"/>
<path d="M2410 3118 c0 -9 5 -20 10 -23 13 -8 13 5 0 25 -8 13 -10 13 -10 -2z"/>
<path d="M4190 3518 c0 -2 35 -35 78 -73 42 -38 64 -54 47 -36 -30 33 -125
116 -125 109z"/>
<path d="M4375 3340 c10 -11 20 -20 23 -20 3 0 -3 9 -13 20 -10 11 -20 20 -23
20 -3 0 3 -9 13 -20z"/>
<path d="M4470 3258 c41 -45 50 -53 50 -45 0 2 -21 23 -47 47 l-48 45 45 -47z"/>
<path d="M4560 3175 c19 -19 36 -35 39 -35 3 0 -10 16 -29 35 -19 19 -36 35
-39 35 -3 0 10 -16 29 -35z"/>
<path d="M4625 3121 c21 -24 95 -86 95 -79 0 2 -26 26 -57 53 -32 27 -49 39
-38 26z"/>
<path d="M4750 3016 c0 -2 8 -10 18 -17 15 -13 16 -12 3 4 -13 16 -21 21 -21
13z"/>
<path d="M4790 2987 c0 -2 26 -26 57 -53 31 -27 54 -44 50 -37 -9 14 -107 97
-107 90z"/>
<path d="M8264 7378 l-19 -23 23 19 c21 18 27 26 19 26 -2 0 -12 -10 -23 -22z"/>
<path d="M8098 7283 c6 -2 18 -2 25 0 6 3 1 5 -13 5 -14 0 -19 -2 -12 -5z"/>
<path d="M8397 6855 c3 -8 9 -12 14 -9 12 7 11 11 -5 17 -10 4 -13 1 -9 -8z"/>
</g>
</svg>
